<?xml version="1.0" encoding="iso-8859-1"?>
<!-- Generator: Adobe Illustrator 19.0.0, SVG Export Plug-In . SVG Version: 6.00 Build 0)  -->
<svg version="1.1" id="Layer_1" xmlns="http://www.w3.org/2000/svg" xmlns:xlink="http://www.w3.org/1999/xlink" x="0px" y="0px"
	 viewBox="0 0 512 512" style="enable-background:new 0 0 512 512;" xml:space="preserve">
<g>
	<g>
		<rect x="89.861" y="365.842" width="334.367" height="15.673"/>
	</g>
</g>
<g>
	<g>
		<path d="M420.571,182.99c-15.845,0-28.735,12.89-28.735,28.735v139.363h15.673V211.725c0-7.203,5.859-13.061,13.061-13.061h75.755
			v232.49c0,7.203-5.859,13.061-13.061,13.061H28.735c-7.202,0-13.061-5.859-13.061-13.061v-232.49h75.755
			c7.202,0,13.061,5.859,13.061,13.061v139.363h15.673v-21.812h211.069v-15.674H120.163V211.725
			c0-15.845-12.89-28.735-28.735-28.735H0v248.163c0,15.845,12.89,28.735,28.735,28.735h454.531
			c15.845,0,28.735-12.89,28.735-28.735V182.99H420.571z"/>
	</g>
</g>
<g>
	<g>
		<rect x="395.494" y="470.071" width="52.245" height="15.673"/>
	</g>
</g>
<g>
	<g>
		<path d="M432.065,26.256H82.024c-15.845,0-28.735,12.89-28.735,28.735v113.11h15.673V54.99c0-7.203,5.859-13.061,13.061-13.061
			h350.041c7.202,0,13.061,5.859,13.061,13.061v113.11H460.8V54.99C460.8,39.146,447.91,26.256,432.065,26.256z"/>
	</g>
</g>
<g>
	<g>
		<rect x="64.261" y="470.071" width="52.245" height="15.673"/>
	</g>
</g>
<g>
	<g>
		<path d="M195.615,169.929c-3.235-9.122-11.946-15.673-22.162-15.673c-10.217,0-18.927,6.552-22.162,15.673h-14.409v15.674h14.409
			c3.235,9.122,11.945,15.673,22.162,15.673c10.216,0,18.927-6.552,22.162-15.673h14.409v-15.674H195.615z M173.453,185.603
			c-4.322,0-7.837-3.515-7.837-7.837c0-4.322,3.515-7.837,7.837-7.837s7.837,3.515,7.837,7.837
			C181.29,182.088,177.775,185.603,173.453,185.603z"/>
	</g>
</g>
<g>
	<g>
		<path d="M362.799,169.929c-3.235-9.122-11.946-15.673-22.162-15.673c-10.217,0-18.927,6.552-22.162,15.673h-14.409v15.674h14.409
			c3.235,9.122,11.945,15.673,22.162,15.673c10.216,0,18.927-6.552,22.162-15.673h14.409v-15.674H362.799z M340.637,185.603
			c-4.322,0-7.837-3.515-7.837-7.837c0-4.322,3.515-7.837,7.837-7.837c4.322,0,7.837,3.515,7.837,7.837
			C348.473,182.088,344.958,185.603,340.637,185.603z"/>
	</g>
</g>
<g>
	<g>
		<rect x="53.29" y="365.842" width="15.673" height="15.673"/>
	</g>
</g>
<g>
	<g>
		<rect x="446.171" y="365.842" width="15.673" height="15.673"/>
	</g>
</g>
<g>
	<g>
		<rect x="70.531" y="230.403" width="15.673" height="15.673"/>
	</g>
</g>
<g>
	<g>
		<rect x="33.959" y="230.403" width="15.674" height="15.673"/>
	</g>
</g>
<g>
	<g>
		<rect x="462.367" y="230.403" width="15.673" height="15.673"/>
	</g>
</g>
<g>
	<g>
		<rect x="425.796" y="230.403" width="15.673" height="15.673"/>
	</g>
</g>
<g>
	<g>
		<rect x="352.131" y="313.597" width="15.673" height="15.673"/>
	</g>
</g>
<g>
</g>
<g>
</g>
<g>
</g>
<g>
</g>
<g>
</g>
<g>
</g>
<g>
</g>
<g>
</g>
<g>
</g>
<g>
</g>
<g>
</g>
<g>
</g>
<g>
</g>
<g>
</g>
<g>
</g>
</svg>
